
<svg width="32" height="32" xmlns="http://www.w3.org/2000/svg">
  <rect width="32" height="32" fill="#000000"/>
  
  <!-- LED dots in a more complex pattern for 32x32 -->
  <!-- Top border -->
  <circle cx="4" cy="4" r="1.5" fill="#ff6600" opacity="1.0"/>
  <circle cx="8" cy="4" r="1.5" fill="#ff6600" opacity="1.0"/>
  <circle cx="12" cy="4" r="1.5" fill="#ff6600" opacity="1.0"/>
  <circle cx="16" cy="4" r="1.5" fill="#ff6600" opacity="1.0"/>
  <circle cx="20" cy="4" r="1.5" fill="#ff6600" opacity="1.0"/>
  <circle cx="24" cy="4" r="1.5" fill="#ff6600" opacity="1.0"/>
  <circle cx="28" cy="4" r="1.5" fill="#ff6600" opacity="1.0"/>
  
  <!-- Left and right borders -->
  <circle cx="4" cy="8" r="1.5" fill="#ff6600" opacity="1.0"/>
  <circle cx="28" cy="8" r="1.5" fill="#ff6600" opacity="1.0"/>
  <circle cx="4" cy="12" r="1.5" fill="#ff6600" opacity="1.0"/>
  <circle cx="28" cy="12" r="1.5" fill="#ff6600" opacity="1.0"/>
  <circle cx="4" cy="16" r="1.5" fill="#ff6600" opacity="1.0"/>
  <circle cx="28" cy="16" r="1.5" fill="#ff6600" opacity="1.0"/>
  <circle cx="4" cy="20" r="1.5" fill="#ff6600" opacity="1.0"/>
  <circle cx="28" cy="20" r="1.5" fill="#ff6600" opacity="1.0"/>
  <circle cx="4" cy="24" r="1.5" fill="#ff6600" opacity="1.0"/>
  <circle cx="28" cy="24" r="1.5" fill="#ff6600" opacity="1.0"/>
  
  <!-- Bottom border -->
  <circle cx="4" cy="28" r="1.5" fill="#ff6600" opacity="1.0"/>
  <circle cx="8" cy="28" r="1.5" fill="#ff6600" opacity="1.0"/>
  <circle cx="12" cy="28" r="1.5" fill="#ff6600" opacity="1.0"/>
  <circle cx="16" cy="28" r="1.5" fill="#ff6600" opacity="1.0"/>
  <circle cx="20" cy="28" r="1.5" fill="#ff6600" opacity="1.0"/>
  <circle cx="24" cy="28" r="1.5" fill="#ff6600" opacity="1.0"/>
  <circle cx="28" cy="28" r="1.5" fill="#ff6600" opacity="1.0"/>
  
  <!-- Middle horizontal line -->
  <circle cx="8" cy="16" r="1.2" fill="#ff4400" opacity="0.8"/>
  <circle cx="12" cy="16" r="1.2" fill="#ff4400" opacity="0.8"/>
  <circle cx="16" cy="16" r="1.2" fill="#ff4400" opacity="0.8"/>
  <circle cx="20" cy="16" r="1.2" fill="#ff4400" opacity="0.8"/>
  <circle cx="24" cy="16" r="1.2" fill="#ff4400" opacity="0.8"/>
  
  <!-- Dim background LEDs -->
  <circle cx="8" cy="8" r="0.8" fill="#ff2200" opacity="0.3"/>
  <circle cx="12" cy="8" r="0.8" fill="#ff2200" opacity="0.3"/>
  <circle cx="16" cy="8" r="0.8" fill="#ff2200" opacity="0.3"/>
  <circle cx="20" cy="8" r="0.8" fill="#ff2200" opacity="0.3"/>
  <circle cx="24" cy="8" r="0.8" fill="#ff2200" opacity="0.3"/>
  
  <circle cx="8" cy="12" r="0.8" fill="#ff2200" opacity="0.3"/>
  <circle cx="12" cy="12" r="0.8" fill="#ff2200" opacity="0.3"/>
  <circle cx="16" cy="12" r="0.8" fill="#ff2200" opacity="0.3"/>
  <circle cx="20" cy="12" r="0.8" fill="#ff2200" opacity="0.3"/>
  <circle cx="24" cy="12" r="0.8" fill="#ff2200" opacity="0.3"/>
  
  <circle cx="8" cy="20" r="0.8" fill="#ff2200" opacity="0.3"/>
  <circle cx="12" cy="20" r="0.8" fill="#ff2200" opacity="0.3"/>
  <circle cx="16" cy="20" r="0.8" fill="#ff2200" opacity="0.3"/>
  <circle cx="20" cy="20" r="0.8" fill="#ff2200" opacity="0.3"/>
  <circle cx="24" cy="20" r="0.8" fill="#ff2200" opacity="0.3"/>
  
  <circle cx="8" cy="24" r="0.8" fill="#ff2200" opacity="0.3"/>
  <circle cx="12" cy="24" r="0.8" fill="#ff2200" opacity="0.3"/>
  <circle cx="16" cy="24" r="0.8" fill="#ff2200" opacity="0.3"/>
  <circle cx="20" cy="24" r="0.8" fill="#ff2200" opacity="0.3"/>
  <circle cx="24" cy="24" r="0.8" fill="#ff2200" opacity="0.3"/>
</svg>